<svg xmlns="http://www.w3.org/2000/svg" viewBox="0 0 5.17 8.64"><defs><style>.cls-1{fill:#fff;}</style></defs><g id="Layer_2" data-name="Layer 2"><g id="Capa_1" data-name="Capa 1"><polygon class="cls-1" points="0 4.11 0 4.11 2.58 5.62 2.58 2.92 0 4.11"/><polygon class="cls-1" points="0 5.06 2.58 8.64 2.58 6.64 0 5.06"/><polygon class="cls-1" points="2.58 2.92 2.58 2.92 2.58 5.62 5.17 4.11 5.17 4.11 2.58 2.92"/><polygon class="cls-1" points="2.58 8.64 5.17 5.06 2.58 6.64 2.58 8.64"/><polygon class="cls-1" points="0 4.11 0 4.11 0 4.11 0 4.11"/><polygon class="cls-1" points="0 4.11 0 4.11 2.58 2.92 2.58 1.42 2.58 0 0 4.11"/><polygon class="cls-1" points="5.17 4.11 2.58 0 2.58 1.42 2.58 1.42 2.58 2.92 5.17 4.11 5.17 4.11"/></g></g></svg>