<?xml version="1.0" encoding="utf-8"?>
<!-- Generator: Adobe Illustrator 25.2.1, SVG Export Plug-In . SVG Version: 6.00 Build 0)  -->
<svg version="1.1" id="Capa_1" xmlns="http://www.w3.org/2000/svg" xmlns:xlink="http://www.w3.org/1999/xlink" x="0px" y="0px"
	 viewBox="0 0 50 50" style="enable-background:new 0 0 50 50;" xml:space="preserve">
<style type="text/css">
	.st0{clip-path:url(#SVGID_3_);}
	.st1{mask:url(#SVGID_1_);}
	.st2{clip-path:url(#SVGID_5_);}
	.st3{clip-path:url(#SVGID_7_);}
	.st4{fill:#FFFFFF;}
</style>
<g>
	<g>
		<g>
			<defs>
				<rect id="SVGID_2_" x="-1354.6" y="-467.8" width="1280" height="720"/>
			</defs>
			<clipPath id="SVGID_3_">
				<use xlink:href="#SVGID_2_"  style="overflow:visible;"/>
			</clipPath>
			<g class="st0">
			</g>
		</g>
	</g>
</g>
<defs>
	<filter id="Adobe_OpacityMaskFilter" filterUnits="userSpaceOnUse" x="-2997.6" y="-202.8" width="3989.1" height="2476">
		<feColorMatrix  type="matrix" values="1 0 0 0 0  0 1 0 0 0  0 0 1 0 0  0 0 0 1 0"/>
	</filter>
</defs>
<mask maskUnits="userSpaceOnUse" x="-2997.6" y="-202.8" width="3989.1" height="2476" id="SVGID_1_">
</mask>
<g class="st1">
	<g>
		<defs>
			<rect id="SVGID_4_" x="-1307.6" y="1094.2" width="1280" height="720"/>
		</defs>
		<clipPath id="SVGID_5_">
			<use xlink:href="#SVGID_4_"  style="overflow:visible;"/>
		</clipPath>
		<g class="st2">
		</g>
	</g>
</g>
<g>
	<g>
		<g>
			<defs>
				<path id="SVGID_6_" d="M-1101.6,1342h-167c-0.5,0-1-0.4-1-1v-170c0-0.5,0.4-1,1-1h167c0.5,0,1,0.4,1,1v170
					C-1100.6,1341.5-1101.1,1342-1101.6,1342z"/>
			</defs>
			<clipPath id="SVGID_7_">
				<use xlink:href="#SVGID_6_"  style="overflow:visible;"/>
			</clipPath>
			<g class="st3">
			</g>
		</g>
	</g>
</g>
<path class="st4" d="M28.9,24.6L20.8,20c-0.3-0.1-0.7,0.1-0.7,0.4v9.3c0,0.3,0.3,0.5,0.7,0.4l8.1-4.7C29.2,25.2,29.2,24.8,28.9,24.6
	z"/>
<g>
	<path class="st4" d="M24.6,49C11.4,49,0.7,38.2,0.7,25c0-13.2,10.7-23.9,23.9-23.9c13.2,0,23.9,10.7,23.9,23.9
		C48.6,38.2,37.8,49,24.6,49z M24.6,1.4C11.6,1.4,1,12,1,25c0,13,10.6,23.7,23.7,23.7c13,0,23.7-10.6,23.7-23.7
		C48.3,12,37.7,1.4,24.6,1.4z"/>
</g>
</svg>
