<svg xmlns="http://www.w3.org/2000/svg" viewBox="0 0 11.01 11.01"><defs><style>.cls-1{fill:#fff;}</style></defs><g id="Layer_2" data-name="Layer 2"><g id="Capa_1" data-name="Capa 1"><path class="cls-1" d="M5.5,0A5.54,5.54,0,1,0,8.25.74,5.4,5.4,0,0,0,5.5,0ZM.55,5.5A5.12,5.12,0,0,1,.71,4.27l2.71,2.8v.55a1,1,0,0,0,.31.74,1,1,0,0,0,.73.31v1.7A4.95,4.95,0,0,1,.55,5.5Zm8.1,3.86V8.64a1.38,1.38,0,0,0-.43-.7,1.41,1.41,0,0,0-.75-.35H6.92V6.05a.62.62,0,0,0-.16-.36.57.57,0,0,0-.37-.16h-3V4.46h.91a.55.55,0,0,0,.55-.53v-1H5.5a1,1,0,0,0,.74-.31,1,1,0,0,0,.31-.74V.67a5,5,0,0,1,2.1,8.69Z"/></g></g></svg>