<svg xmlns="http://www.w3.org/2000/svg" viewBox="0 0 14 14"><defs><style>.cls-1{fill:#fff;}</style></defs><g id="Layer_2" data-name="Layer 2"><g id="Capa_1" data-name="Capa 1"><path class="cls-1" d="M7,5a.51.51,0,0,0-.5.5v4.75a.5.5,0,0,0,.25.43.5.5,0,0,0,.5,0,.5.5,0,0,0,.25-.43V5.5A.51.51,0,0,0,7,5Z"/><path class="cls-1" d="M7.52,3.27A.63.63,0,0,0,7.06,3a.61.61,0,0,0-.5.18.63.63,0,0,0-.19.42A.65.65,0,0,0,6.53,4a.59.59,0,0,0,.41.21.58.58,0,0,0,.44-.13.62.62,0,0,0,.24-.39.68.68,0,0,0-.1-.46Z"/><path class="cls-1" d="M7,0A7,7,0,1,0,12,2.05,7,7,0,0,0,7,0ZM7,13a6,6,0,1,1,4.24-1.76A6,6,0,0,1,7,13Z"/></g></g></svg>